<svg xmlns="http://www.w3.org/2000/svg" viewBox="0 0 640 420">
  <defs>
    <linearGradient id="bg" x1="0" y1="0" x2="1" y2="1">
      <stop offset="0" stop-color="#1d1110"/>
      <stop offset=".55" stop-color="#62331f"/>
      <stop offset="1" stop-color="#f8d6ac"/>
    </linearGradient>
  </defs>
  <rect width="640" height="420" rx="34" fill="url(#bg)"/>
  <circle cx="496" cy="92" r="144" fill="#2dd4bf" opacity=".13"/>
  <path d="M152 272h304v62c0 21-17 38-38 38H190c-21 0-38-17-38-38z" fill="#fff4e8"/>
  <path d="M152 214h304v60H152z" fill="#b45309"/>
  <path d="M152 166h304v58H152z" fill="#fff4e8"/>
  <path d="M152 166c27-36 69-36 96 0 27-36 69-36 96 0 27-36 69-36 96 0" fill="#f0b56d"/>
  <circle cx="230" cy="246" r="10" fill="#fff4e8" opacity=".75"/>
  <circle cx="306" cy="246" r="10" fill="#fff4e8" opacity=".75"/>
  <circle cx="382" cy="246" r="10" fill="#fff4e8" opacity=".75"/>
</svg>
