<svg xmlns="http://www.w3.org/2000/svg" viewBox="0 0 640 420">
  <defs>
    <linearGradient id="bg" x1="0" y1="0" x2="1" y2="1">
      <stop offset="0" stop-color="#21120c"/>
      <stop offset=".55" stop-color="#5b3824"/>
      <stop offset="1" stop-color="#c88448"/>
    </linearGradient>
    <radialGradient id="glow" cx=".28" cy=".24" r=".72">
      <stop offset="0" stop-color="#f0b56d" stop-opacity=".66"/>
      <stop offset=".55" stop-color="#2dd4bf" stop-opacity=".16"/>
      <stop offset="1" stop-color="#000" stop-opacity="0"/>
    </radialGradient>
  </defs>
  <rect width="640" height="420" rx="34" fill="url(#bg)"/>
  <rect width="640" height="420" rx="34" fill="url(#glow)"/>
  <path d="M140 292c42 38 178 38 220 0 20-18 28-78 21-124H119c-7 46 1 106 21 124z" fill="#fff4e8" opacity=".94"/>
  <path d="M379 184h45c34 0 52 23 47 53-5 32-31 53-67 53h-26" fill="none" stroke="#fff4e8" stroke-width="24" stroke-linecap="round"/>
  <path d="M169 180c39 18 127 18 166 0" fill="none" stroke="#5b3824" stroke-width="12" stroke-linecap="round" opacity=".75"/>
  <path d="M196 128c-13-18 8-27-1-46M254 128c-13-18 8-27-1-46M312 128c-13-18 8-27-1-46" fill="none" stroke="#fff4e8" stroke-width="12" stroke-linecap="round" opacity=".82"/>
  <ellipse cx="250" cy="326" rx="172" ry="22" fill="#120a07" opacity=".28"/>
</svg>
