<svg xmlns="http://www.w3.org/2000/svg" viewBox="0 0 640 420">
  <defs>
    <linearGradient id="bg" x1="0" y1="0" x2="1" y2="1">
      <stop offset="0" stop-color="#172018"/>
      <stop offset=".52" stop-color="#75501f"/>
      <stop offset="1" stop-color="#facc15"/>
    </linearGradient>
  </defs>
  <rect width="640" height="420" rx="34" fill="url(#bg)"/>
  <circle cx="472" cy="88" r="132" fill="#2dd4bf" opacity=".16"/>
  <path d="M160 148h258l-24 154c-5 31-31 54-63 54H247c-32 0-58-23-63-54z" fill="#fff4e8" opacity=".96"/>
  <path d="M196 190h186l-16 88c-6 32-34 55-67 55h-24c-33 0-61-23-67-55z" fill="#fbbf24" opacity=".82"/>
  <path d="M437 178h38c29 0 48 22 43 50-6 29-31 47-61 47h-28" fill="none" stroke="#fff4e8" stroke-width="23" stroke-linecap="round"/>
  <path d="M222 130c25-29 73-29 98 0" fill="none" stroke="#fff4e8" stroke-width="13" stroke-linecap="round"/>
</svg>
